<?xml version="1.0" encoding="UTF-8"?>
<svg xmlns="http://www.w3.org/2000/svg" xmlns:xlink="http://www.w3.org/1999/xlink" width="150px" height="150px" viewBox="0 0 150 150" version="1.1">
<g id="surface1">
<path style=" stroke:none;fill-rule:nonzero;fill:rgb(0%,0%,0%);fill-opacity:1;" d="M 36.351562 8.511719 C 30.945312 8.964844 25.878906 10.769531 21.105469 13.929688 C 19.359375 15.089844 17.828125 16.378906 16.082031 18.179688 C 10.523438 23.894531 7.367188 31.105469 6.816406 39.351562 C 6.71875 40.675781 6.695312 51.75 6.734375 75.273438 C 6.769531 106.363281 6.792969 109.382812 6.972656 110.421875 C 8.011719 116.339844 9.722656 120.339844 13.238281 125.078125 C 14.324219 126.546875 17.242188 129.554688 18.59375 130.613281 C 23.941406 134.804688 29.667969 137.058594 36.351562 137.632812 C 37.210938 137.703125 51.644531 137.75 75.070312 137.75 C 114.796875 137.75 113.695312 137.765625 116.914062 137.203125 C 123.75 136.019531 130.234375 132.417969 135.039062 127.152344 C 139.273438 122.511719 142.121094 116.425781 143.039062 110.003906 C 143.265625 108.40625 143.265625 39.183594 143.039062 37.441406 C 142.25 31.5 140.195312 26.210938 136.953125 21.785156 C 133.34375 16.84375 129.003906 13.371094 123.335938 10.910156 C 121.15625 9.957031 118.46875 9.203125 115.546875 8.714844 L 114.019531 8.453125 L 75.753906 8.429688 C 54.707031 8.417969 36.972656 8.453125 36.351562 8.511719 Z M 61.285156 25.160156 C 71.953125 26.140625 82.390625 30.148438 90.820312 36.488281 C 93.210938 38.289062 94.527344 39.421875 96.714844 41.59375 C 99.621094 44.472656 102.023438 47.382812 104.199219 50.6875 C 105.828125 53.136719 106.699219 54.652344 106.59375 54.816406 C 106.542969 54.902344 106.558594 54.925781 106.628906 54.890625 C 106.699219 54.84375 106.796875 54.890625 106.832031 54.996094 C 106.867188 55.09375 106.855469 55.140625 106.785156 55.105469 C 106.628906 55.007812 106.628906 55.117188 106.785156 55.402344 C 106.878906 55.582031 106.832031 55.640625 106.367188 55.773438 C 106.078125 55.859375 105.804688 56 105.78125 56.085938 C 105.625 56.464844 106.03125 56.753906 106.558594 56.65625 C 106.738281 56.621094 106.785156 56.667969 106.757812 56.8125 C 106.738281 56.917969 106.640625 57.027344 106.542969 57.027344 C 106.449219 57.039062 106.234375 57.0625 106.066406 57.074219 C 105.898438 57.085938 105.839844 57.121094 105.921875 57.15625 C 106.113281 57.230469 105.886719 57.550781 105.648438 57.550781 C 105.550781 57.550781 105.457031 57.625 105.421875 57.695312 C 105.386719 57.777344 105.386719 57.730469 105.421875 57.574219 C 105.457031 57.433594 105.433594 57.3125 105.359375 57.3125 C 105.289062 57.3125 105.242188 57.382812 105.265625 57.457031 C 105.277344 57.539062 105.21875 57.597656 105.132812 57.574219 C 105.039062 57.5625 105 57.597656 105.039062 57.660156 C 105.132812 57.800781 104.679688 57.957031 104.5 57.839844 C 104.40625 57.777344 104.40625 57.824219 104.5 58.003906 C 104.609375 58.21875 104.59375 58.230469 104.285156 58.207031 C 104.105469 58.195312 103.890625 58.148438 103.820312 58.101562 C 103.734375 58.050781 103.675781 58.078125 103.675781 58.136719 C 103.675781 58.207031 103.722656 58.269531 103.78125 58.269531 C 103.84375 58.269531 103.914062 58.375 103.949219 58.507812 C 103.984375 58.660156 103.949219 58.746094 103.84375 58.746094 C 103.746094 58.746094 103.675781 58.863281 103.675781 59.007812 C 103.675781 59.234375 103.652344 59.246094 103.554688 59.101562 C 103.460938 58.949219 103.4375 58.949219 103.4375 59.089844 C 103.4375 59.222656 103.386719 59.210938 103.28125 59.042969 C 103.183594 58.925781 103.054688 58.863281 102.96875 58.910156 C 102.886719 58.960938 102.851562 58.9375 102.863281 58.851562 C 102.886719 58.78125 102.789062 58.710938 102.648438 58.683594 C 102.46875 58.675781 102.40625 58.722656 102.441406 58.863281 C 102.480469 58.984375 102.347656 59.1875 102.132812 59.378906 C 101.929688 59.542969 101.808594 59.722656 101.882812 59.761719 C 101.941406 59.796875 102 59.769531 102 59.699219 C 102 59.628906 102.0625 59.605469 102.132812 59.640625 C 102.324219 59.761719 101.785156 60.09375 101.523438 60.023438 C 101.390625 59.988281 101.210938 60.070312 101.054688 60.25 C 100.914062 60.402344 100.699219 60.535156 100.566406 60.535156 C 100.433594 60.535156 100.328125 60.59375 100.328125 60.667969 C 100.328125 60.726562 100.277344 60.761719 100.21875 60.726562 C 100.160156 60.679688 100.085938 60.726562 100.050781 60.796875 C 100.015625 60.917969 99.96875 60.917969 99.8125 60.785156 C 99.691406 60.703125 99.609375 60.667969 99.609375 60.726562 C 99.609375 60.785156 99.550781 60.75 99.492188 60.65625 C 99.394531 60.511719 99.335938 60.523438 99.023438 60.75 C 98.59375 61.058594 98.496094 61.074219 98.234375 60.820312 C 97.984375 60.558594 97.445312 60.488281 97.539062 60.726562 C 97.578125 60.820312 97.660156 60.855469 97.734375 60.808594 C 97.804688 60.761719 97.828125 60.808594 97.792969 60.90625 C 97.753906 61 97.792969 61.214844 97.886719 61.382812 C 97.96875 61.539062 98.042969 61.71875 98.054688 61.789062 C 98.054688 61.847656 97.804688 61.453125 97.503906 60.90625 C 97.195312 60.332031 97.003906 59.878906 97.074219 59.832031 C 97.148438 59.796875 97.109375 59.6875 97.003906 59.582031 C 96.835938 59.425781 96.824219 59.4375 96.894531 59.617188 C 97.003906 59.902344 96.894531 59.867188 96.726562 59.570312 C 96.65625 59.414062 96.644531 59.34375 96.714844 59.390625 C 96.789062 59.425781 96.929688 59.378906 97.039062 59.269531 C 97.207031 59.089844 97.207031 59.054688 97.039062 58.863281 C 96.941406 58.757812 96.894531 58.625 96.941406 58.589844 C 97.085938 58.445312 96.796875 58.507812 96.597656 58.675781 C 96.476562 58.757812 96.429688 58.875 96.476562 58.925781 C 96.523438 58.984375 96.5 58.984375 96.417969 58.9375 C 96.332031 58.886719 96.296875 58.78125 96.332031 58.699219 C 96.367188 58.601562 96.332031 58.496094 96.25 58.433594 C 96.152344 58.375 96.128906 58.398438 96.203125 58.507812 C 96.273438 58.613281 96.25 58.636719 96.152344 58.566406 C 96.046875 58.507812 96.035156 58.445312 96.128906 58.351562 C 96.203125 58.28125 96.261719 58.136719 96.261719 58.039062 C 96.261719 57.910156 96.226562 57.921875 96.09375 58.089844 C 95.9375 58.304688 95.925781 58.304688 95.796875 58.015625 C 95.664062 57.742188 95.664062 57.742188 95.832031 57.957031 C 95.9375 58.089844 96.023438 58.148438 96.023438 58.078125 C 96.023438 58.015625 95.902344 57.839844 95.769531 57.671875 C 95.640625 57.503906 95.554688 57.445312 95.605469 57.515625 C 95.832031 57.957031 95.460938 57.515625 94.527344 56.214844 C 90.332031 50.425781 84.519531 45.460938 77.679688 41.859375 C 72.726562 39.242188 66.867188 37.382812 61.582031 36.726562 C 59.453125 36.464844 55.734375 36.285156 54.46875 36.367188 C 53.117188 36.476562 52.089844 36.296875 51 35.769531 C 49.515625 35.066406 48.585938 34.015625 48.070312 32.476562 C 47.855469 31.84375 47.820312 31.511719 47.855469 30.519531 C 47.890625 29.445312 47.9375 29.242188 48.320312 28.433594 C 49.027344 26.953125 50.175781 25.890625 51.679688 25.304688 C 52.851562 24.851562 57.207031 24.78125 61.285156 25.160156 Z M 57.457031 46.09375 C 64.164062 46.597656 70.527344 48.804688 75.933594 52.515625 C 77.832031 53.828125 79.257812 55.023438 81.085938 56.835938 C 83.429688 59.164062 85.128906 61.324219 86.828125 64.128906 C 87.734375 65.632812 87.914062 66 87.652344 65.847656 C 87.578125 65.808594 87.566406 65.859375 87.601562 65.953125 C 87.640625 66.0625 87.722656 66.121094 87.78125 66.085938 C 87.832031 66.050781 87.820312 66.179688 87.746094 66.382812 C 87.675781 66.597656 87.496094 66.824219 87.328125 66.894531 C 87.136719 66.980469 87.066406 67.085938 87.125 67.207031 C 87.160156 67.3125 87.222656 67.457031 87.257812 67.53125 C 87.28125 67.613281 87.136719 67.742188 86.945312 67.828125 C 86.742188 67.921875 86.574219 68.054688 86.574219 68.136719 C 86.574219 68.222656 86.429688 68.328125 86.265625 68.363281 C 86.035156 68.425781 86 68.472656 86.121094 68.542969 C 86.242188 68.625 86.242188 68.652344 86.121094 68.652344 C 86.035156 68.652344 85.808594 68.804688 85.617188 69.007812 C 85.429688 69.210938 85.222656 69.367188 85.175781 69.367188 C 85.128906 69.367188 84.972656 69.535156 84.84375 69.726562 C 84.710938 69.914062 84.554688 70.082031 84.507812 70.082031 C 84.445312 70.082031 84.433594 70.046875 84.457031 69.988281 C 84.492188 69.9375 84.433594 69.820312 84.328125 69.726562 C 84.160156 69.570312 84.148438 69.582031 84.21875 69.761719 C 84.265625 69.902344 84.230469 69.964844 84.085938 69.964844 C 83.96875 69.964844 83.753906 70.046875 83.609375 70.15625 C 83.382812 70.308594 83.300781 70.320312 83.132812 70.191406 C 82.964844 70.058594 82.953125 70.058594 83.085938 70.203125 C 83.285156 70.441406 83.261719 70.5625 82.988281 70.5625 C 82.855469 70.5625 82.714844 70.476562 82.664062 70.382812 C 82.546875 70.046875 82.148438 70.511719 82.210938 70.929688 C 82.246094 71.253906 82.234375 71.265625 81.996094 71.132812 C 81.742188 71 81.742188 71.015625 81.914062 71.214844 C 82.078125 71.417969 82.066406 71.433594 81.886719 71.359375 C 81.734375 71.3125 81.707031 71.335938 81.757812 71.480469 C 81.804688 71.597656 81.78125 71.648438 81.707031 71.597656 C 81.636719 71.550781 81.554688 71.621094 81.515625 71.753906 C 81.46875 71.945312 81.347656 71.992188 80.957031 71.992188 C 80.621094 71.992188 80.390625 72.066406 80.296875 72.195312 C 80.15625 72.386719 79.820312 72.300781 79.9375 72.101562 C 79.984375 72.039062 79.914062 71.992188 79.796875 71.992188 C 79.664062 71.992188 79.507812 71.933594 79.4375 71.859375 C 79.304688 71.730469 78.660156 71.609375 78.730469 71.742188 C 78.753906 71.777344 78.742188 71.910156 78.695312 72.027344 C 78.632812 72.171875 78.445312 71.921875 77.941406 71.039062 C 75.898438 67.492188 72.585938 63.996094 69.058594 61.691406 C 64.570312 58.769531 60.136719 57.40625 54.347656 57.207031 C 52.136719 57.121094 51.609375 57.074219 51.023438 56.859375 C 49.121094 56.179688 47.757812 54.664062 47.363281 52.800781 C 47.007812 51.070312 47.542969 49.269531 48.824219 47.910156 C 50.472656 46.179688 52.566406 45.734375 57.457031 46.09375 Z M 107.929688 57.097656 C 108.289062 57.800781 108.578125 58.421875 108.566406 58.46875 C 108.566406 58.53125 108.242188 57.945312 107.859375 57.195312 C 107.476562 56.441406 107.15625 55.867188 107.15625 55.917969 C 107.144531 55.964844 107.238281 56.203125 107.371094 56.453125 C 107.515625 56.738281 107.5625 56.980469 107.488281 57.132812 C 107.417969 57.324219 107.394531 57.335938 107.394531 57.171875 C 107.382812 57.0625 107.261719 56.882812 107.117188 56.777344 C 106.914062 56.644531 106.878906 56.5625 106.988281 56.5 C 107.09375 56.429688 107.070312 56.359375 106.902344 56.238281 C 106.75 56.132812 106.710938 56.023438 106.785156 55.941406 C 107.070312 55.605469 107.296875 55.832031 107.929688 57.097656 Z M 104.332031 58.386719 C 104.367188 58.445312 104.355469 58.507812 104.285156 58.507812 C 104.226562 58.507812 104.128906 58.445312 104.09375 58.386719 C 104.058594 58.316406 104.070312 58.269531 104.140625 58.269531 C 104.199219 58.269531 104.296875 58.316406 104.332031 58.386719 Z M 96.632812 59.136719 C 96.511719 59.246094 96.5 59.234375 96.570312 59.066406 C 96.609375 58.949219 96.679688 58.886719 96.714844 58.925781 C 96.75 58.960938 96.714844 59.054688 96.632812 59.136719 Z M 102.835938 59.28125 C 103.007812 59.507812 103.007812 59.507812 102.8125 59.355469 C 102.695312 59.269531 102.597656 59.136719 102.597656 59.066406 C 102.597656 58.996094 102.609375 58.972656 102.636719 58.996094 C 102.648438 59.019531 102.742188 59.152344 102.835938 59.28125 Z M 102.167969 60.046875 C 102.203125 60.105469 102.15625 60.175781 102.0625 60.214844 C 101.953125 60.261719 101.917969 60.222656 101.964844 60.105469 C 102.035156 59.914062 102.085938 59.902344 102.167969 60.046875 Z M 88.308594 66.859375 C 88.726562 67.683594 88.679688 67.78125 88.25 66.992188 C 87.878906 66.324219 87.855469 66.261719 87.949219 66.261719 C 87.972656 66.261719 88.140625 66.527344 88.308594 66.859375 Z M 59.347656 67.148438 C 61.941406 67.921875 64.011719 69.425781 65.515625 71.621094 C 66.113281 72.492188 66.761719 73.960938 66.867188 74.675781 C 66.90625 74.867188 66.90625 74.964844 66.878906 74.882812 C 66.808594 74.675781 66.640625 74.703125 66.558594 74.917969 C 66.472656 75.132812 66.128906 75.15625 66.113281 74.941406 C 66.113281 74.867188 66.054688 74.929688 65.996094 75.082031 C 65.898438 75.324219 65.863281 75.34375 65.683594 75.203125 C 65.507812 75.058594 65.492188 75.058594 65.566406 75.25 C 65.625 75.394531 65.601562 75.453125 65.507812 75.429688 C 65.3125 75.359375 64.203125 76.410156 64.296875 76.574219 C 64.34375 76.648438 64.285156 76.636719 64.179688 76.539062 C 64.058594 76.445312 63.9375 76.410156 63.890625 76.457031 C 63.855469 76.492188 63.878906 76.527344 63.949219 76.527344 C 64.226562 76.527344 64.035156 76.8125 63.554688 77.136719 C 63.292969 77.316406 62.792969 77.554688 62.457031 77.660156 C 62.109375 77.78125 61.859375 77.914062 61.894531 77.972656 C 61.929688 78.03125 61.820312 78.078125 61.65625 78.078125 C 61.488281 78.078125 61.34375 78.125 61.34375 78.1875 C 61.34375 78.246094 61.234375 78.316406 61.09375 78.351562 C 60.949219 78.390625 60.878906 78.472656 60.925781 78.542969 C 60.972656 78.628906 60.878906 78.675781 60.6875 78.675781 C 60.449219 78.675781 60.375 78.722656 60.421875 78.855469 C 60.484375 78.972656 60.375 79.046875 60.089844 79.105469 C 59.847656 79.140625 59.667969 79.25 59.667969 79.34375 C 59.667969 79.4375 59.574219 79.511719 59.453125 79.511719 C 59.335938 79.511719 59.121094 79.644531 58.976562 79.808594 C 58.832031 79.976562 58.605469 80.109375 58.484375 80.109375 C 58.355469 80.109375 58.222656 80.214844 58.175781 80.335938 C 58.125 80.488281 57.949219 80.585938 57.578125 80.632812 C 57.21875 80.691406 57.074219 80.765625 57.109375 80.871094 C 57.148438 80.96875 57.0625 81.0625 56.933594 81.097656 C 56.789062 81.132812 56.679688 81.109375 56.679688 81.050781 C 56.679688 80.992188 56.488281 81.039062 56.261719 81.148438 C 56.011719 81.265625 55.855469 81.410156 55.890625 81.503906 C 55.960938 81.671875 55.566406 81.933594 55.4375 81.816406 C 55.402344 81.777344 55.367188 81.828125 55.367188 81.933594 C 55.367188 82.027344 55.257812 82.160156 55.125 82.195312 C 54.996094 82.234375 54.886719 82.328125 54.886719 82.386719 C 54.886719 82.445312 54.828125 82.496094 54.753906 82.496094 C 54.527344 82.496094 53.570312 82.972656 53.570312 83.09375 C 53.570312 83.164062 53.4375 83.28125 53.273438 83.355469 C 53.105469 83.425781 52.972656 83.546875 52.972656 83.628906 C 52.972656 83.699219 52.902344 83.773438 52.816406 83.773438 C 52.589844 83.773438 51.539062 84.308594 51.539062 84.417969 C 51.539062 84.488281 50.832031 84.75 50.460938 84.808594 C 50.273438 84.847656 50.101562 85.050781 50.101562 85.238281 C 50.101562 85.503906 49.734375 85.632812 49.015625 85.632812 L 48.574219 85.632812 L 48.894531 85.933594 C 49.171875 86.195312 49.160156 86.195312 48.730469 85.894531 C 46.957031 84.679688 45.621094 82.6875 45 80.371094 C 44.722656 79.308594 44.699219 79.070312 44.746094 77.480469 C 44.804688 75.941406 44.855469 75.632812 45.1875 74.617188 C 46.371094 71.132812 48.859375 68.589844 52.316406 67.351562 C 53.714844 66.847656 54.480469 66.742188 56.441406 66.789062 C 58.019531 66.824219 58.449219 66.871094 59.347656 67.148438 Z M 89.195312 68.828125 C 89.195312 68.890625 89.121094 68.816406 89.027344 68.652344 C 88.929688 68.484375 88.859375 68.292969 88.859375 68.234375 C 88.859375 68.160156 88.929688 68.246094 89.027344 68.410156 C 89.121094 68.578125 89.195312 68.757812 89.195312 68.828125 Z M 40.371094 87.746094 C 43.550781 87.996094 47.304688 88.570312 50.28125 89.25 C 61.558594 91.851562 68.960938 96.695312 72.226562 103.644531 C 73.132812 105.601562 73.804688 108.226562 73.972656 110.554688 L 74.054688 111.699219 L 73.589844 111.769531 C 72.058594 112.03125 70.429688 113.488281 70.429688 114.621094 C 70.429688 115.410156 71.496094 115.933594 73.578125 116.175781 C 75.695312 116.425781 78.480469 115.945312 79.042969 115.230469 C 79.832031 114.214844 78.433594 112.425781 76.410156 111.84375 C 76.113281 111.757812 75.824219 111.652344 75.777344 111.601562 C 75.632812 111.496094 75.898438 109.050781 76.183594 107.6875 C 78.242188 98.214844 87.015625 91.601562 101.285156 88.773438 C 104.992188 88.042969 108.015625 87.746094 112.546875 87.664062 C 116.972656 87.578125 117.1875 87.613281 117.929688 88.4375 C 118.289062 88.832031 118.394531 89.128906 118.789062 90.730469 C 119.027344 91.742188 119.613281 93.6875 120.070312 95.050781 C 120.523438 96.410156 120.894531 97.710938 120.894531 97.9375 C 120.894531 98.355469 120.570312 98.84375 120.285156 98.84375 C 120.214844 98.84375 119.449219 98.605469 118.585938 98.320312 C 112.609375 96.328125 105.039062 96.015625 98.03125 97.484375 C 90.808594 98.988281 84.265625 102.617188 81.050781 106.890625 C 80.34375 107.84375 79.136719 110.136719 78.984375 110.839844 C 78.910156 111.148438 79.003906 111.078125 79.757812 110.265625 C 84.027344 105.660156 92.351562 102.367188 103.078125 101.054688 C 105.601562 100.742188 111.699219 100.671875 114.199219 100.933594 C 118.550781 101.375 122.519531 102.328125 123.476562 103.164062 C 123.714844 103.378906 124.207031 104.144531 124.6875 105.039062 C 125.117188 105.863281 125.84375 107.210938 126.300781 108.023438 C 126.933594 109.179688 127.078125 109.539062 126.980469 109.667969 C 126.800781 109.871094 126.492188 109.789062 125.726562 109.289062 C 123.742188 108 120.214844 106.601562 117.128906 105.886719 C 113.324219 105.003906 108.46875 104.597656 104.273438 104.8125 C 96.714844 105.195312 89.503906 106.9375 83.90625 109.71875 C 81.914062 110.707031 79.03125 112.628906 80.441406 112.03125 C 82.234375 111.269531 83.898438 110.707031 86.15625 110.125 C 95.066406 107.785156 106.34375 107.210938 116.410156 108.582031 C 121.050781 109.214844 126.347656 110.53125 127.902344 111.4375 C 130.066406 112.703125 129.753906 115.757812 127.375 116.460938 C 126.464844 116.734375 125.90625 116.664062 123.800781 115.984375 C 117.65625 114.027344 111.769531 113.023438 104.226562 112.675781 C 97.132812 112.34375 88.824219 113.25 83.824219 114.921875 C 83.191406 115.125 83.15625 115.160156 83.035156 115.671875 C 82.59375 117.464844 81.148438 118.65625 78.574219 119.347656 C 77.523438 119.636719 77.226562 119.660156 74.917969 119.660156 C 72.65625 119.671875 72.296875 119.648438 71.328125 119.394531 C 69.378906 118.882812 67.851562 117.964844 67.191406 116.914062 C 67.046875 116.6875 66.84375 116.1875 66.738281 115.816406 L 66.535156 115.136719 L 65.566406 114.8125 C 63.171875 114.027344 59.046875 113.273438 55.066406 112.902344 C 52.507812 112.664062 44.078125 112.703125 41.253906 112.964844 C 35.359375 113.523438 30.277344 114.515625 25.78125 115.996094 C 23.878906 116.628906 23.101562 116.6875 22.230469 116.304688 C 21.597656 116.019531 20.890625 115.265625 20.6875 114.660156 C 20.375 113.703125 20.832031 112.332031 21.679688 111.6875 C 22.277344 111.234375 23.257812 110.828125 25.085938 110.304688 C 29.082031 109.15625 34.101562 108.355469 39.4375 108.023438 C 42.378906 107.84375 49.300781 107.941406 52.136719 108.203125 C 58.320312 108.773438 64.75 110.136719 68.457031 111.664062 C 69.761719 112.1875 69.773438 112.199219 69.355469 111.84375 C 68.265625 110.898438 65.445312 109.382812 62.96875 108.394531 C 59.203125 106.890625 53.488281 105.578125 48.191406 104.992188 C 45.761719 104.71875 41.074219 104.621094 38.96875 104.800781 C 33.363281 105.277344 28.628906 106.6875 24.261719 109.179688 C 23.1875 109.789062 22.71875 109.910156 22.71875 109.550781 C 22.71875 109.441406 23.402344 108.214844 25.507812 104.539062 C 26.296875 103.164062 26.65625 102.867188 28.269531 102.367188 C 31.304688 101.398438 34.761719 100.898438 38.984375 100.789062 C 49.230469 100.550781 60.027344 103.082031 66.414062 107.246094 C 67.777344 108.128906 69.488281 109.574219 70.15625 110.410156 C 70.46875 110.804688 70.742188 111.101562 70.765625 111.078125 C 70.863281 110.984375 70.492188 109.933594 70.074219 109.085938 C 67.347656 103.628906 60.316406 99.25 51.417969 97.484375 C 48.441406 96.886719 46.863281 96.757812 42.929688 96.769531 C 37.976562 96.769531 35.109375 97.164062 31.582031 98.320312 C 30.695312 98.605469 29.894531 98.84375 29.785156 98.84375 C 29.476562 98.84375 29.058594 98.34375 29.058594 97.972656 C 29.058594 97.769531 29.429688 96.46875 29.894531 95.074219 C 30.351562 93.664062 30.921875 91.78125 31.152344 90.882812 C 31.6875 88.84375 31.75 88.6875 32.167969 88.28125 C 32.765625 87.710938 33.183594 87.640625 36.125 87.625 C 37.609375 87.625 39.519531 87.6875 40.371094 87.746094 Z M 40.371094 87.746094 "/>
<path style=" stroke:none;fill-rule:nonzero;fill:rgb(0%,0%,0%);fill-opacity:1;" d="M 105.671875 55.605469 C 105.625 55.640625 105.585938 55.761719 105.585938 55.84375 C 105.585938 55.988281 105.625 55.988281 105.765625 55.832031 C 105.863281 55.738281 105.945312 55.628906 105.945312 55.59375 C 105.945312 55.5 105.765625 55.511719 105.671875 55.605469 Z M 105.671875 55.605469 "/>
<path style=" stroke:none;fill-rule:nonzero;fill:rgb(0%,0%,0%);fill-opacity:1;" d="M 105.921875 56.917969 C 106.007812 56.953125 106.113281 56.945312 106.152344 56.90625 C 106.199219 56.871094 106.125 56.835938 105.996094 56.847656 C 105.863281 56.847656 105.828125 56.882812 105.921875 56.917969 Z M 105.921875 56.917969 "/>
<path style=" stroke:none;fill-rule:nonzero;fill:rgb(0%,0%,0%);fill-opacity:1;" d="M 103.160156 58.769531 C 103.257812 58.886719 103.398438 58.949219 103.472656 58.902344 C 103.566406 58.839844 103.554688 58.804688 103.460938 58.769531 C 103.375 58.746094 103.339844 58.675781 103.375 58.625 C 103.414062 58.566406 103.328125 58.53125 103.207031 58.542969 C 102.980469 58.554688 102.980469 58.578125 103.160156 58.769531 Z M 103.160156 58.769531 "/>
<path style=" stroke:none;fill-rule:nonzero;fill:rgb(0%,0%,0%);fill-opacity:1;" d="M 100.230469 60.117188 C 100.097656 60.261719 100.113281 60.296875 100.265625 60.296875 C 100.363281 60.296875 100.445312 60.214844 100.445312 60.117188 C 100.445312 59.902344 100.421875 59.902344 100.230469 60.117188 Z M 100.230469 60.117188 "/>
<path style=" stroke:none;fill-rule:nonzero;fill:rgb(0%,0%,0%);fill-opacity:1;" d="M 77.726562 70.320312 C 77.726562 70.382812 77.785156 70.441406 77.847656 70.441406 C 77.917969 70.441406 77.964844 70.382812 77.964844 70.320312 C 77.964844 70.25 77.917969 70.203125 77.847656 70.203125 C 77.785156 70.203125 77.726562 70.25 77.726562 70.320312 Z M 77.726562 70.320312 "/>
</g>
</svg>
